<svg width="26" height="26" viewBox="0 0 26 26" fill="none" xmlns="http://www.w3.org/2000/svg">
<path d="M14.2427 22.9635L16.0519 21.6982C18.3649 20.079 20.1552 17.8201 21.2033 15.1985C22.2515 12.5768 22.5119 9.70632 21.9528 6.93883C21.9252 6.80246 21.8666 6.67426 21.7815 6.56418C21.6964 6.45409 21.5871 6.36507 21.4621 6.304L13.0001 2.16675L4.53931 6.304C4.41408 6.36494 4.30458 6.4539 4.21928 6.564C4.13399 6.67409 4.0752 6.80235 4.04748 6.93883C3.48846 9.70643 3.7491 12.577 4.79745 15.1987C5.8458 17.8203 7.63631 20.0791 9.94948 21.6982L11.7586 22.9635C12.1227 23.2182 12.5563 23.3548 13.0007 23.3548C13.445 23.3548 13.8786 23.2182 14.2427 22.9635V22.9635Z" stroke="#517FFF" stroke-width="2" stroke-linecap="round" stroke-linejoin="round"/>
</svg>
