<svg width="28" height="28" viewBox="0 0 28 28" fill="none" xmlns="http://www.w3.org/2000/svg">
<path d="M24.2812 21.6562H5.46875V4.59375C5.46875 4.47344 5.37031 4.375 5.25 4.375H3.71875C3.59844 4.375 3.5 4.47344 3.5 4.59375V23.4062C3.5 23.5266 3.59844 23.625 3.71875 23.625H24.2812C24.4016 23.625 24.5 23.5266 24.5 23.4062V21.875C24.5 21.7547 24.4016 21.6562 24.2812 21.6562ZM8.36172 17.4371C8.44648 17.5219 8.5832 17.5219 8.6707 17.4371L12.4523 13.6746L15.9414 17.1855C16.0262 17.2703 16.1656 17.2703 16.2504 17.1855L23.7809 9.65781C23.8656 9.57305 23.8656 9.43359 23.7809 9.34883L22.698 8.26602C22.6569 8.22531 22.6014 8.20247 22.5436 8.20247C22.4857 8.20247 22.4302 8.22531 22.3891 8.26602L16.1 14.5523L12.6164 11.0469C12.5753 11.0062 12.5198 10.9833 12.4619 10.9833C12.4041 10.9833 12.3485 11.0062 12.3074 11.0469L7.28164 16.0426C7.24093 16.0837 7.21809 16.1392 7.21809 16.1971C7.21809 16.2549 7.24093 16.3104 7.28164 16.3516L8.36172 17.4371Z" fill="#517FFF"/>
</svg>
