<svg width="24" height="26" viewBox="0 0 24 26" fill="none" xmlns="http://www.w3.org/2000/svg">
<path d="M23.6831 15.7347L21.8298 14.1664C21.9175 13.6343 21.9627 13.091 21.9627 12.5477C21.9627 12.0044 21.9175 11.4611 21.8298 10.929L23.6831 9.36073C23.8229 9.24229 23.9229 9.08454 23.9699 8.90845C24.0169 8.73236 24.0087 8.54628 23.9462 8.37495L23.9208 8.30214C23.4105 6.89075 22.6465 5.58237 21.6656 4.44022L21.6147 4.38141C21.4957 4.24293 21.3371 4.14339 21.1598 4.09589C20.9825 4.0484 20.7949 4.05519 20.6215 4.11536L18.3211 4.92471C17.4723 4.23578 16.5244 3.69248 15.5001 3.31161L15.0559 0.931172C15.0224 0.752058 14.9346 0.587276 14.8042 0.458719C14.6738 0.330162 14.507 0.243916 14.3259 0.211439L14.2495 0.197437C12.7753 -0.0658122 11.2247 -0.0658122 9.75053 0.197437L9.67414 0.211439C9.49304 0.243916 9.32621 0.330162 9.19581 0.458719C9.06542 0.587276 8.97763 0.752058 8.94412 0.931172L8.49705 3.32282C7.48094 3.70377 6.53469 4.24678 5.69583 4.93031L3.37845 4.11536C3.20519 4.05471 3.01738 4.04768 2.83998 4.0952C2.66258 4.14272 2.50399 4.24255 2.38529 4.38141L2.33436 4.44022C1.35463 5.58318 0.590741 6.89134 0.0792323 8.30214L0.0537666 8.37495C-0.0735618 8.72502 0.0311305 9.11709 0.316912 9.36073L2.19288 10.9458C2.10517 11.4723 2.06273 12.01 2.06273 12.5449C2.06273 13.0826 2.10517 13.6203 2.19288 14.144L0.316912 15.7291C0.177122 15.8476 0.0770718 16.0053 0.0300665 16.1814C-0.0169388 16.3575 -0.00867248 16.5436 0.0537666 16.7149L0.0792323 16.7877C0.591375 18.1992 1.34969 19.5014 2.33436 20.6496L2.38529 20.7084C2.50428 20.8469 2.66288 20.9465 2.84017 20.994C3.01746 21.0415 3.20514 21.0347 3.37845 20.9745L5.69583 20.1595C6.53903 20.8457 7.48126 21.389 8.49705 21.767L8.94412 24.1587C8.97763 24.3378 9.06542 24.5026 9.19581 24.6311C9.32621 24.7597 9.49304 24.8459 9.67414 24.8784L9.75053 24.8924C11.2383 25.1571 12.7617 25.1571 14.2495 24.8924L14.3259 24.8784C14.507 24.8459 14.6738 24.7597 14.8042 24.6311C14.9346 24.5026 15.0224 24.3378 15.0559 24.1587L15.5001 21.7782C16.524 21.3984 17.4772 20.8533 18.3211 20.1651L20.6215 20.9745C20.7948 21.0351 20.9826 21.0422 21.16 20.9947C21.3374 20.9471 21.496 20.8473 21.6147 20.7084L21.6656 20.6496C22.6503 19.4986 23.4086 18.1992 23.9208 16.7877L23.9462 16.7149C24.0736 16.3704 23.9689 15.9784 23.6831 15.7347ZM19.8208 11.2595C19.8915 11.6824 19.9283 12.1164 19.9283 12.5505C19.9283 12.9846 19.8915 13.4187 19.8208 13.8416L19.634 14.9646L21.7477 16.7541C21.4273 17.4847 21.0228 18.1764 20.5423 18.8153L17.9165 17.8939L17.0281 18.6164C16.3518 19.1654 15.5991 19.5966 14.7842 19.8991L13.7062 20.2996L13.1997 23.0161C12.4006 23.1057 11.5938 23.1057 10.7946 23.0161L10.2881 20.294L9.21858 19.8879C8.41217 19.5854 7.66235 19.1542 6.99175 18.608L6.10328 17.8827L3.46051 18.8125C2.97949 18.1712 2.5777 17.4794 2.25513 16.7513L4.39142 14.945L4.2075 13.8248C4.13959 13.4075 4.10281 12.9762 4.10281 12.5505C4.10281 12.122 4.13676 11.6936 4.2075 11.2763L4.39142 10.1561L2.25513 8.34975C2.57487 7.61881 2.97949 6.92988 3.46051 6.28857L6.10328 7.21834L6.99175 6.493C7.66235 5.9469 8.41217 5.51562 9.21858 5.21317L10.291 4.81269L10.7975 2.09059C11.5925 2.00097 12.4046 2.00097 13.2025 2.09059L13.709 4.80709L14.7871 5.20756C15.5991 5.51002 16.3546 5.9413 17.0309 6.4902L17.9194 7.21274L20.5452 6.29137C21.0262 6.93268 21.428 7.62441 21.7505 8.35255L19.6369 10.1421L19.8208 11.2595ZM12.0028 7.34156C9.25254 7.34156 7.02287 9.54837 7.02287 12.2705C7.02287 14.9926 9.25254 17.1994 12.0028 17.1994C14.7531 17.1994 16.9828 14.9926 16.9828 12.2705C16.9828 9.54837 14.7531 7.34156 12.0028 7.34156ZM14.2438 14.4885C13.9499 14.7802 13.6006 15.0116 13.216 15.1692C12.8314 15.3269 12.4191 15.4077 12.0028 15.4071C11.1568 15.4071 10.3617 15.0794 9.76185 14.4885C9.46708 14.1976 9.23333 13.8518 9.07406 13.4712C8.91478 13.0905 8.83312 12.6825 8.83377 12.2705C8.83377 11.4331 9.16482 10.6462 9.76185 10.0525C10.3617 9.45875 11.1568 9.13389 12.0028 9.13389C12.8489 9.13389 13.644 9.45875 14.2438 10.0525C14.5386 10.3434 14.7723 10.6891 14.9316 11.0698C15.0909 11.4504 15.1725 11.8585 15.1719 12.2705C15.1719 13.1078 14.8408 13.8948 14.2438 14.4885Z" fill="#517FFF"/>
</svg>
