<svg width="28" height="28" viewBox="0 0 28 28" fill="none" xmlns="http://www.w3.org/2000/svg">
<path d="M9.625 12.25C9.625 12.0179 9.71719 11.7954 9.88128 11.6313C10.0454 11.4672 10.2679 11.375 10.5 11.375H19.25C19.4821 11.375 19.7046 11.4672 19.8687 11.6313C20.0328 11.7954 20.125 12.0179 20.125 12.25C20.125 12.4821 20.0328 12.7046 19.8687 12.8687C19.7046 13.0328 19.4821 13.125 19.25 13.125H10.5C10.2679 13.125 10.0454 13.0328 9.88128 12.8687C9.71719 12.7046 9.625 12.4821 9.625 12.25ZM10.5 16.625H19.25C19.4821 16.625 19.7046 16.5328 19.8687 16.3687C20.0328 16.2046 20.125 15.9821 20.125 15.75C20.125 15.5179 20.0328 15.2954 19.8687 15.1313C19.7046 14.9672 19.4821 14.875 19.25 14.875H10.5C10.2679 14.875 10.0454 14.9672 9.88128 15.1313C9.71719 15.2954 9.625 15.5179 9.625 15.75C9.625 15.9821 9.71719 16.2046 9.88128 16.3687C10.0454 16.5328 10.2679 16.625 10.5 16.625ZM25.375 7V20.125C25.3721 20.8203 25.0946 21.4863 24.603 21.978C24.1113 22.4696 23.4453 22.7471 22.75 22.75H3.5C2.8057 22.75 2.13967 22.4749 1.6477 21.985C1.15573 21.4951 0.877893 20.8302 0.875 20.1359V9.625C0.875 9.39294 0.967187 9.17038 1.13128 9.00628C1.29538 8.84219 1.51794 8.75 1.75 8.75C1.98206 8.75 2.20462 8.84219 2.36872 9.00628C2.53281 9.17038 2.625 9.39294 2.625 9.625V20.125C2.625 20.3571 2.71719 20.5796 2.88128 20.7437C3.04538 20.9078 3.26794 21 3.5 21C3.73206 21 3.95462 20.9078 4.11872 20.7437C4.28281 20.5796 4.375 20.3571 4.375 20.125V7C4.375 6.53587 4.55937 6.09075 4.88756 5.76256C5.21575 5.43437 5.66087 5.25 6.125 5.25H23.625C24.0891 5.25 24.5342 5.43437 24.8624 5.76256C25.1906 6.09075 25.375 6.53587 25.375 7ZM23.625 7H6.125V20.125C6.12491 20.4233 6.0731 20.7194 5.97187 21H22.75C22.9821 21 23.2046 20.9078 23.3687 20.7437C23.5328 20.5796 23.625 20.3571 23.625 20.125V7Z" fill="#517FFF"/>
</svg>
