<svg width="80" height="67" viewBox="0 0 80 67" fill="none" xmlns="http://www.w3.org/2000/svg">
<path fill-rule="evenodd" clip-rule="evenodd" d="M19.7349 37.7534L22.6502 52.7249C23.7256 58.2769 20.4152 61.1468 15.5693 63.7058C10.7235 66.2583 5.26224 62.2157 4.18683 56.6638L1.27155 41.6857C-1.44937 27.7248 17.1112 24.2913 19.7349 37.7534Z" fill="#8100E5" stroke="#FEC001" stroke-width="0.5" stroke-miterlimit="22.93"/>
<path fill-rule="evenodd" clip-rule="evenodd" d="M33.6441 22.1602H32.18C15.401 25.2893 28.2023 62.2549 11.8249 64.4511C21.2251 66.0124 29.7441 64.5612 33.6765 60.7714C39.6885 54.9732 39.2868 44.9123 40.3816 34.1063C40.9517 28.4507 38.0948 23.9094 33.6441 22.1343V22.1602Z" fill="#7424EC" stroke="#FEC001" stroke-width="0.5" stroke-miterlimit="22.93"/>
<path fill-rule="evenodd" clip-rule="evenodd" d="M46.1085 64.8719C41.5736 66.3878 37.5505 61.8076 37.5246 54.7462C37.4922 46.2595 42.1567 25.8267 32.1216 22.1923C42.6814 21.9202 45.0395 22.9632 49.393 27.2131C55.7742 35.8228 53.0338 48.5269 53.2217 54.4223C53.3966 60.1297 50.3324 62.6757 46.0955 64.859L46.1085 64.8719Z" fill="#6647F4" stroke="#FEC001" stroke-width="0.5" stroke-miterlimit="22.93"/>
<path fill-rule="evenodd" clip-rule="evenodd" d="M60.6136 9.94168L52.412 48.4233C52.2348 49.1937 52.1286 49.9787 52.0945 50.7685C50.2806 62.4296 46.1214 63.5892 41.457 64.2176C54.6794 68.7524 66.3664 63.8548 70.2016 55.6272C70.5872 54.8206 70.8806 53.9731 71.0762 53.1007L79.2778 14.6191C82.4069 -0.0415052 63.7297 -4.74482 60.6071 9.94816L60.6136 9.94168Z" fill="#517FFF" stroke="#FEC001" stroke-width="0.5" stroke-miterlimit="22.93"/>
</svg>
