<?xml version="1.0" standalone="no"?>
<!DOCTYPE svg PUBLIC "-//W3C//DTD SVG 20010904//EN"
 "http://www.w3.org/TR/2001/REC-SVG-20010904/DTD/svg10.dtd">
<svg version="1.0" xmlns="http://www.w3.org/2000/svg"
 width="1024.000000pt" height="1024.000000pt" viewBox="0 0 1024.000000 1024.000000"
 preserveAspectRatio="xMidYMid meet">
<metadata>
Created by potrace 1.14, written by Peter Selinger 2001-2017
</metadata>
<g transform="translate(0.000000,1024.000000) scale(0.100000,-0.100000)"
fill="#000000" stroke="none">
<path d="M8807 9204 c-3 -4 -37 -8 -74 -10 -126 -6 -196 -24 -383 -96 -19 -7
-37 -15 -40 -18 -3 -3 -21 -14 -40 -24 -142 -77 -321 -237 -405 -362 -22 -32
-45 -64 -51 -71 -12 -13 -137 -261 -140 -278 -1 -5 -14 -46 -29 -90 -15 -44
-29 -87 -30 -95 -2 -8 -4 -15 -5 -15 -1 0 -3 -9 -5 -20 -3 -11 -14 -60 -25
-110 -11 -49 -22 -99 -24 -110 -2 -11 -6 -33 -10 -50 -3 -16 -8 -40 -11 -53
-2 -13 -6 -31 -9 -40 -3 -9 -8 -30 -11 -47 -2 -16 -7 -40 -10 -52 -3 -13 -7
-33 -10 -45 -3 -13 -8 -36 -11 -53 -3 -16 -10 -50 -15 -75 -6 -25 -13 -56 -15
-70 -3 -13 -12 -56 -20 -95 -9 -38 -17 -79 -20 -90 -5 -26 -7 -35 -44 -205
-18 -80 -34 -158 -37 -175 -2 -16 -10 -55 -18 -85 -13 -54 -28 -126 -30 -145
-1 -5 -7 -37 -15 -70 -7 -33 -13 -66 -13 -72 0 -7 -4 -13 -8 -13 -4 0 -6 -7
-5 -16 2 -9 -6 -51 -16 -93 -10 -42 -20 -87 -23 -101 -3 -14 -7 -36 -10 -50
-3 -14 -7 -36 -10 -50 -7 -35 -12 -61 -19 -90 -3 -14 -8 -36 -11 -50 -5 -26
-10 -52 -52 -240 -14 -63 -27 -124 -29 -135 -2 -11 -9 -45 -15 -75 -7 -30 -13
-64 -15 -75 -1 -11 -3 -20 -4 -20 -1 0 -3 -7 -5 -15 -15 -68 -22 -104 -29
-142 -9 -49 -38 -174 -43 -188 -4 -8 -5 -18 -5 -23 1 -4 -5 -39 -14 -78 -9
-39 -18 -78 -19 -88 -2 -9 -4 -16 -5 -16 -1 0 -3 -13 -6 -30 -4 -32 -11 -67
-14 -75 -1 -3 -2 -8 -1 -12 0 -4 -4 -19 -9 -34 -6 -14 -12 -41 -15 -58 -16
-122 -29 -140 -39 -56 -3 25 -7 54 -10 65 -2 11 -7 40 -11 65 -6 37 -27 133
-51 233 -2 9 -6 25 -8 35 -2 9 -12 44 -22 77 -10 33 -19 65 -20 70 0 6 -6 23
-12 38 -7 16 -12 34 -12 41 0 6 -4 16 -9 21 -5 6 -14 28 -21 50 -7 22 -21 59
-31 83 -10 23 -18 43 -18 45 1 6 -125 245 -142 268 -10 15 -19 31 -19 36 0 5
-8 18 -18 29 -9 10 -32 42 -50 71 -19 29 -74 89 -124 135 -50 46 -98 90 -107
99 -46 44 -130 109 -140 109 -6 0 -11 4 -11 8 0 10 -87 72 -100 72 -6 0 -10 3
-10 8 0 4 -10 12 -23 18 -12 6 -53 27 -92 47 -101 52 -149 71 -245 100 -73 22
-140 39 -147 38 -2 0 -16 4 -33 9 -17 5 -53 12 -82 15 -28 4 -60 9 -72 11 -12
3 -43 7 -71 10 -27 2 -68 7 -90 9 -74 9 -268 17 -480 19 -173 2 -216 6 -242
19 -40 21 -57 22 -49 2 3 -8 2 -16 -2 -16 -34 -6 -276 -16 -457 -19 -68 -1
-70 -7 -10 -26 55 -18 85 -30 85 -34 0 -3 -24 -16 -52 -29 -29 -14 -60 -30
-68 -37 -8 -7 -19 -13 -25 -14 -37 -6 -315 -240 -315 -265 0 -3 -9 -16 -21
-28 -65 -69 -235 -369 -264 -467 -4 -14 -13 -38 -20 -55 -25 -58 -71 -204 -81
-252 -1 -6 -7 -27 -13 -45 -6 -18 -12 -44 -15 -58 -3 -14 -7 -34 -10 -45 -12
-52 -25 -112 -30 -135 -11 -56 -26 -137 -30 -165 -2 -16 -5 -30 -6 -30 -1 0
-3 -9 -4 -20 -6 -42 -16 -111 -20 -130 -2 -11 -7 -47 -11 -80 -4 -33 -9 -73
-11 -90 -3 -16 -6 -48 -9 -70 -2 -22 -6 -56 -9 -75 -12 -100 -17 -149 -21
-185 -2 -22 -7 -69 -11 -105 -4 -36 -6 -73 -6 -82 1 -29 -14 -29 -16 0 -3 28
-9 67 -12 67 -1 0 -3 11 -6 25 -2 14 -11 61 -19 105 -8 44 -17 91 -20 105 -3
14 -9 48 -15 75 -5 28 -12 64 -15 80 -3 17 -8 41 -11 55 -14 75 -66 271 -78
296 -8 16 -16 35 -18 43 -6 25 -90 196 -100 202 -5 3 -10 13 -12 22 -1 9 -12
28 -24 42 -12 14 -22 28 -22 31 0 10 -74 98 -135 160 -54 55 -158 139 -210
171 -106 66 -288 139 -390 158 -142 26 -442 27 -484 1 -6 -4 -11 -5 -11 -2 0
5 -126 -28 -175 -46 -60 -22 -170 -73 -173 -80 -2 -5 -12 -8 -22 -8 -10 0 -20
-3 -22 -7 -2 -5 -37 -30 -78 -58 -93 -63 -231 -199 -292 -290 -59 -89 -122
-205 -111 -205 4 0 3 -4 -3 -8 -6 -4 -23 -42 -38 -84 -26 -74 -32 -94 -42
-148 -2 -14 -9 -48 -15 -75 -5 -28 -11 -83 -13 -122 -2 -39 -6 -75 -9 -80 -3
-5 -2 -15 3 -23 5 -8 5 -22 -1 -32 -5 -10 -6 -18 -2 -18 4 0 8 -28 9 -63 1
-60 10 -161 19 -202 3 -11 7 -33 10 -50 16 -89 27 -145 40 -212 3 -16 8 -39
11 -53 4 -22 11 -58 29 -150 3 -14 7 -38 10 -55 3 -16 10 -50 15 -75 5 -25 12
-58 15 -75 7 -38 11 -58 36 -180 12 -55 22 -111 24 -125 4 -25 7 -40 25 -135
6 -27 12 -61 15 -75 3 -14 7 -36 10 -50 8 -36 14 -71 20 -105 3 -16 13 -64 21
-105 20 -97 20 -97 30 -150 4 -25 8 -47 9 -50 4 -19 16 -79 20 -100 46 -241
73 -337 126 -455 12 -27 22 -53 21 -57 -1 -5 2 -8 7 -8 5 0 13 -9 16 -21 7
-20 64 -119 75 -129 4 -3 19 -23 36 -45 77 -104 148 -174 289 -283 6 -5 29
-19 52 -32 48 -26 54 -39 21 -41 -20 -1 -49 -4 -105 -11 -19 -2 -6 -11 19 -14
13 -2 52 -8 88 -13 36 -6 81 -14 100 -16 19 -3 69 -12 110 -20 41 -8 93 -17
115 -20 22 -2 51 -7 64 -9 20 -5 55 -10 141 -21 14 -2 39 -5 55 -8 17 -3 62
-8 100 -12 39 -4 79 -9 90 -11 20 -4 121 -11 280 -19 161 -9 521 -4 630 9 28
3 77 8 109 11 33 3 72 7 88 10 65 11 135 22 197 30 17 2 34 6 38 8 4 3 24 8
43 11 19 3 50 10 68 15 18 5 35 10 37 10 22 2 138 34 175 48 8 3 23 8 34 10
10 2 33 9 50 17 17 7 47 19 66 26 19 7 54 21 77 31 24 11 46 20 50 21 23 6
197 106 261 149 115 78 254 211 337 324 17 22 38 49 48 59 9 11 17 23 17 27 0
4 6 14 13 21 7 7 35 50 62 96 52 89 64 103 64 75 0 -51 33 -191 72 -306 44
-131 159 -346 214 -400 8 -9 15 -21 15 -27 0 -6 4 -9 8 -6 4 2 13 -4 20 -14
10 -17 9 -20 -11 -25 -12 -3 -43 -7 -68 -8 -58 -3 -54 -19 9 -35 68 -18 211
-70 252 -92 19 -10 51 -27 70 -37 37 -21 118 -50 160 -57 14 -3 25 -5 25 -6 0
-3 50 -8 100 -10 28 -2 93 -11 145 -22 52 -10 118 -21 145 -24 28 -3 53 -8 57
-10 8 -5 113 -18 151 -19 15 0 27 -2 27 -5 0 -3 17 -6 38 -6 128 -5 209 -11
220 -18 6 -4 12 -4 12 1 0 9 88 9 97 -1 3 -3 12 -1 18 4 8 7 21 7 38 1 14 -5
27 -7 30 -5 3 3 47 7 99 9 51 2 113 6 138 9 98 11 191 23 230 31 14 3 41 8 60
11 52 10 59 11 135 28 99 23 104 24 113 30 5 3 19 7 33 9 38 8 211 67 241 82
14 8 31 15 37 15 20 0 260 118 350 171 97 58 263 175 325 228 53 47 243 237
279 280 15 18 27 37 27 42 0 5 3 9 8 9 4 0 23 24 42 53 19 28 41 58 48 65 6 7
12 17 12 22 0 5 6 15 13 22 19 21 137 243 141 268 1 3 4 10 7 15 14 24 75 223
85 284 3 12 12 53 20 90 9 36 18 77 20 91 3 14 18 86 34 162 16 75 32 150 35
167 3 17 12 61 21 98 9 38 18 79 20 93 3 14 8 34 11 45 4 11 7 29 9 40 1 11 9
52 17 90 9 39 18 82 21 98 6 28 12 55 21 97 4 14 8 35 11 48 2 12 6 32 8 45 3
12 8 33 11 47 3 14 8 34 10 45 10 56 16 82 22 105 4 14 8 30 8 35 2 9 11 56
21 105 1 8 12 58 24 110 11 52 23 106 26 120 4 23 16 78 19 90 1 3 5 23 9 45
5 22 17 78 27 124 11 47 22 101 25 120 3 20 8 39 10 42 2 3 6 20 9 37 3 18 7
46 10 64 3 17 8 35 11 39 2 4 7 27 10 51 4 24 10 50 14 58 4 8 6 25 5 38 -1
12 1 22 5 22 3 0 6 9 7 20 1 11 14 75 29 143 14 67 27 127 29 132 5 22 16 81
20 100 2 11 4 21 5 23 4 4 13 49 27 132 2 14 7 34 10 45 4 11 7 27 9 35 1 8 9
49 19 90 9 41 19 86 21 100 3 14 11 52 19 85 7 33 16 77 19 99 4 21 8 41 10
45 3 3 7 26 11 51 4 24 12 53 17 65 6 11 10 21 9 23 -4 3 13 100 23 137 2 6 6
28 11 50 4 22 25 121 46 220 22 99 42 194 45 210 2 17 7 38 10 47 3 9 7 27 9
40 3 13 10 48 16 78 7 30 13 64 15 75 1 11 3 20 4 20 1 0 3 7 5 15 19 86 24
112 35 165 5 28 12 66 15 85 3 19 7 46 10 60 28 157 23 418 -11 572 -8 40 -16
80 -17 88 -4 25 -48 152 -73 208 -13 29 -24 55 -24 57 0 8 -98 170 -117 192
-10 12 -29 37 -43 54 -51 67 -224 229 -244 229 -4 0 -16 8 -26 18 -11 10 -36
27 -57 38 -21 11 -59 32 -86 47 -26 15 -51 27 -55 26 -4 0 -23 7 -42 15 -45
18 -72 28 -86 31 -6 2 -36 10 -65 18 -67 19 -135 29 -222 33 -37 2 -71 5 -76
8 -4 3 -11 3 -14 0z"/>
</g>
</svg>
