<svg width="176" height="27" viewBox="0 0 176 27" fill="none" xmlns="http://www.w3.org/2000/svg">
<path fill-rule="evenodd" clip-rule="evenodd" d="M8.21138 15.1469L9.33351 20.9097C9.74745 23.0468 8.47321 24.1514 6.60797 25.1364C4.74273 26.1189 2.6406 24.5629 2.22666 22.4259L1.10453 16.6606C0.0571998 11.2868 7.20146 9.96517 8.21138 15.1469Z" fill="#8100E5" stroke="white" stroke-width="0.5" stroke-miterlimit="22.93"/>
<path fill-rule="evenodd" clip-rule="evenodd" d="M13.5652 9.1448H13.0017C6.54318 10.3492 11.4706 24.5779 5.16669 25.4232C8.78495 26.0242 12.0641 25.4656 13.5777 24.0069C15.8918 21.7751 15.7372 17.9024 16.1586 13.7431C16.3781 11.5661 15.2784 9.81808 13.5652 9.13483V9.1448Z" fill="#7424EC" stroke="white" stroke-width="0.5" stroke-miterlimit="22.93"/>
<path fill-rule="evenodd" clip-rule="evenodd" d="M18.363 25.5853C16.6174 26.1688 15.0689 24.4058 15.0589 21.6878C15.0464 18.4211 16.8419 10.5562 12.9792 9.15725C17.0438 9.05252 17.9515 9.45399 19.6272 11.0898C22.0835 14.4039 21.0287 19.2939 21.101 21.5631C21.1683 23.76 19.9888 24.74 18.358 25.5803L18.363 25.5853Z" fill="#6647F4" stroke="white" stroke-width="0.5" stroke-miterlimit="22.93"/>
<path fill-rule="evenodd" clip-rule="evenodd" d="M23.9462 4.4418L20.7893 19.254C20.7211 19.5505 20.6802 19.8527 20.6671 20.1567C19.9689 24.6452 18.368 25.0916 16.5725 25.3334C21.662 27.079 26.1606 25.1938 27.6368 22.0269C27.7852 21.7164 27.8981 21.3902 27.9734 21.0544L31.1304 6.2422C32.3348 0.599108 25.1457 -1.21127 23.9437 4.44429L23.9462 4.4418Z" fill="#517FFF" stroke="white" stroke-width="0.5" stroke-miterlimit="22.93"/>
<path fill-rule="evenodd" clip-rule="evenodd" d="M52.2342 11.6321V19.6372C52.2331 19.9537 52.116 20.2591 51.9048 20.4963C51.6936 20.7335 51.4027 20.8864 51.0863 20.9264C50.8424 20.9728 50.5947 20.9979 50.3463 21.0013C50.098 20.9971 49.8504 20.9721 49.6063 20.9264C49.2897 20.8837 48.9988 20.7305 48.7857 20.4943C48.5726 20.258 48.4513 19.9542 48.4434 19.6372V11.6321L48.1716 11.3773H45.287L45 11.6321V19.7871C45.024 20.6923 45.3476 21.5645 45.9208 22.2689C46.4941 22.9734 47.285 23.4709 48.1716 23.6847C48.8829 23.8594 49.6135 23.945 50.3463 23.9395C51.0662 23.9304 51.7818 23.8297 52.4758 23.6397C53.0174 23.4959 53.5289 23.2573 53.986 22.9351C54.4397 23.2632 54.9523 23.5024 55.4963 23.6397C56.1958 23.8278 56.9162 23.9284 57.6409 23.9395C58.3605 23.9413 59.0769 23.8454 59.7703 23.6547C60.6656 23.4584 61.4694 22.9716 62.0548 22.2712C62.6401 21.5707 62.9735 20.6967 63.0023 19.7871V11.6471L62.7154 11.3923H59.7553L59.4683 11.6471V19.6522C59.4672 19.9687 59.3501 20.2741 59.1389 20.5113C58.9278 20.7485 58.6369 20.9013 58.3205 20.9413C58.0765 20.9878 57.8289 21.0129 57.5805 21.0163C57.3321 21.0121 57.0845 20.987 56.8404 20.9413C56.5266 20.8954 56.2393 20.7409 56.0292 20.5049C55.8192 20.269 55.7 19.9669 55.6926 19.6522V11.6471L55.4057 11.3923H52.5211L52.2342 11.6471V11.6321ZM72.0639 23.9095C73.0337 23.9184 74.0015 23.8178 74.9485 23.6097C75.8332 23.4326 76.6286 22.9562 77.1987 22.2617C77.7689 21.5673 78.0785 20.6979 78.0747 19.8021L77.7878 19.5472H74.9938L74.7068 19.8021C74.6674 20.092 74.5342 20.3613 74.3272 20.5695C74.1201 20.7777 73.8506 20.9135 73.559 20.9563C73.06 21.0406 72.555 21.0857 72.0488 21.0913C71.5426 21.0849 71.0377 21.0398 70.5385 20.9563C70.2222 20.91 69.9328 20.7532 69.7225 20.5142C69.5121 20.2752 69.3945 19.9695 69.3907 19.6522V18.7227H76.7306C77.0822 18.7392 77.4263 18.6181 77.689 18.3854C77.9516 18.1528 78.1118 17.8271 78.1351 17.4785V15.1399C78.1266 14.2293 77.8043 13.349 77.2218 12.6453C76.6393 11.9417 75.8318 11.4572 74.9334 11.2724C73.9852 11.0716 73.0183 10.9711 72.0488 10.9725C71.0705 10.9485 70.0939 11.0647 69.1491 11.3173C68.246 11.5572 67.4457 12.0814 66.8684 12.8112C66.291 13.5411 65.9678 14.4371 65.9473 15.3648V19.7871C65.9571 20.6941 66.2805 21.5702 66.8634 22.2688C67.4462 22.9674 68.2531 23.4461 69.1491 23.6247C70.1012 23.8328 71.0739 23.9334 72.0488 23.9245L72.0639 23.9095ZM74.7068 16.4142H69.4058V15.2899C69.4106 14.9759 69.5293 14.6742 69.7401 14.4401C69.951 14.206 70.2398 14.0553 70.5536 14.0156C71.0507 13.9174 71.557 13.8722 72.0639 13.8807C72.5707 13.8711 73.0771 13.9163 73.5741 14.0156C73.8879 14.0553 74.1768 14.206 74.3877 14.4401C74.5985 14.6742 74.7172 14.9759 74.7219 15.2899V16.4292L74.7068 16.4142ZM81.4577 7.02996L81.1707 7.29983V19.7871C81.1868 20.6946 81.5144 21.5696 82.0993 22.2674C82.6842 22.9652 83.4914 23.444 84.3876 23.6247C86.2947 24.0244 88.2648 24.0244 90.1719 23.6247C91.0666 23.4435 91.8719 22.9641 92.4543 22.2661C93.0367 21.568 93.3611 20.6933 93.3736 19.7871V15.5447C93.3638 14.6377 93.0405 13.7616 92.4576 13.063C91.8748 12.3644 91.0678 11.8857 90.1719 11.7071C89.2254 11.4947 88.2577 11.3892 87.2873 11.3923H84.6292V7.28483L84.3423 7.01501L81.4577 7.02996ZM87.2873 14.2405C87.7942 14.2304 88.3006 14.2757 88.7976 14.3754C89.1129 14.4148 89.4035 14.5649 89.6168 14.7987C89.8302 15.0324 89.9521 15.3343 89.9604 15.6496V19.6672C89.9526 19.9842 89.8312 20.288 89.6181 20.5243C89.405 20.7605 89.1141 20.9137 88.7976 20.9563C88.2991 21.0434 87.7934 21.0835 87.2873 21.0763C86.7812 21.0829 86.2756 21.0427 85.777 20.9563C85.4632 20.9104 85.1759 20.7558 84.9658 20.5199C84.7558 20.284 84.6366 19.9819 84.6292 19.6672V14.2405H87.2873ZM106.921 12.2018C105.627 11.2994 104.056 10.8751 102.481 11.0025C100.893 10.8968 99.3109 11.2789 97.9497 12.0968C97.2166 12.6531 96.7293 13.4699 96.5905 14.3754C96.5184 14.8726 96.5184 15.3774 96.5905 15.8745C96.6315 16.2843 96.7639 16.6798 96.9781 17.0325C97.1923 17.3851 97.483 17.686 97.8289 17.9132C98.3742 18.2581 98.978 18.5019 99.611 18.6328C100.572 18.8084 101.549 18.8838 102.526 18.8577H103.462C104.353 18.8577 104.897 19.1575 104.882 20.0269C104.882 20.2832 104.784 20.53 104.607 20.7167C104.43 20.9034 104.188 21.016 103.93 21.0313C103.468 21.1226 102.997 21.1628 102.526 21.1512C101.994 21.1516 101.464 21.1065 100.94 21.0163C100.643 20.9688 100.369 20.8257 100.162 20.6091C99.9548 20.3924 99.8248 20.1141 99.7923 19.817L99.5204 19.5622H96.6358L96.3489 19.817C96.3567 20.7295 96.6784 21.612 97.2607 22.3181C97.8431 23.0243 98.651 23.5117 99.5506 23.6996C100.544 23.9078 101.556 24.0084 102.571 23.9995C103.536 24.0051 104.498 23.9045 105.441 23.6996C106.183 23.5443 106.863 23.1783 107.4 22.646C107.936 22.1137 108.305 21.4381 108.461 20.7015C108.525 20.2038 108.525 19.7001 108.461 19.2024C108.391 18.5606 108.121 17.9566 107.687 17.4752C107.254 16.9939 106.68 16.6595 106.045 16.5191C104.967 16.2614 103.86 16.1455 102.752 16.1743H101.589C100.729 16.1743 100.079 15.8295 100.079 15.035C100.07 14.7823 100.159 14.536 100.328 14.3464C100.496 14.1568 100.732 14.0385 100.985 14.0156C101.484 13.9327 101.99 13.8975 102.496 13.9107C103.103 13.8748 103.71 13.988 104.263 14.2405C104.435 14.3453 104.578 14.4902 104.681 14.6627C104.783 14.8351 104.842 15.0298 104.852 15.2299L105.154 15.4998H108.023L108.31 15.2299C108.32 14.6602 108.201 14.0956 107.964 13.577C107.726 13.0584 107.375 12.5989 106.936 12.2317L106.921 12.2018ZM117.628 23.9395C118.598 23.9475 119.566 23.847 120.513 23.6397C121.409 23.4611 122.216 22.9824 122.799 22.2838C123.382 21.5852 123.705 20.7091 123.715 19.8021V19.3374L123.428 19.0825H120.543L120.271 19.3374V19.6821C120.268 19.9995 120.15 20.3052 119.94 20.5442C119.729 20.7832 119.44 20.94 119.124 20.9863C118.624 21.0698 118.119 21.115 117.613 21.1213C117.107 21.1156 116.602 21.0704 116.103 20.9863C115.787 20.94 115.497 20.7832 115.287 20.5442C115.077 20.3052 114.959 19.9995 114.955 19.6821V15.2899C114.96 14.9759 115.079 14.6742 115.29 14.4401C115.5 14.206 115.789 14.0553 116.103 14.0156C117.102 13.8341 118.125 13.8341 119.124 14.0156C119.437 14.0553 119.726 14.206 119.937 14.4401C120.148 14.6742 120.267 14.9759 120.271 15.2899V15.6197L120.543 15.8745H123.428L123.715 15.6197V15.1849C123.706 14.2743 123.384 13.3939 122.802 12.6903C122.219 11.9867 121.411 11.5022 120.513 11.3173C118.606 10.9177 116.636 10.9177 114.729 11.3173C113.832 11.5047 113.026 11.9899 112.444 12.693C111.862 13.3961 111.538 14.275 111.527 15.1849V19.7871C111.537 20.6941 111.86 21.5702 112.443 22.2688C113.026 22.9674 113.833 23.4461 114.729 23.6247C115.681 23.8336 116.654 23.9342 117.628 23.9245V23.9395ZM129.801 7.02996H126.917L126.63 7.29983V23.2799L126.917 23.5347H129.801L130.088 23.2799V14.2855H132.746C133.253 14.2754 133.759 14.3206 134.256 14.4204C134.569 14.463 134.856 14.6146 135.066 14.848C135.277 15.0815 135.396 15.3815 135.404 15.6946V23.3249L135.691 23.5797H138.576L138.863 23.3249V15.6047C138.853 14.6977 138.53 13.8215 137.947 13.1229C137.364 12.4243 136.557 11.9456 135.661 11.767C134.714 11.5555 133.747 11.4499 132.776 11.4522H130.118V7.3448L129.831 7.07494L129.801 7.02996ZM147.924 23.9395C148.894 23.9484 149.862 23.8479 150.809 23.6397C151.705 23.4611 152.512 22.9824 153.095 22.2838C153.677 21.5852 154.001 20.7091 154.011 19.8021V15.1399C154.001 14.2329 153.677 13.3568 153.095 12.6582C152.512 11.9596 151.705 11.4809 150.809 11.3023C148.902 10.9027 146.932 10.9027 145.025 11.3023C144.131 11.486 143.327 11.9662 142.745 12.6636C142.164 13.3611 141.838 14.2345 141.823 15.1399V19.7871C141.838 20.6926 142.164 21.5659 142.745 22.2634C143.327 22.9609 144.131 23.441 145.025 23.6247C145.977 23.8336 146.949 23.9342 147.924 23.9245V23.9395ZM147.924 13.8657C148.431 13.8561 148.938 13.9014 149.435 14.0007C149.748 14.0403 150.037 14.1911 150.248 14.4251C150.459 14.6592 150.578 14.9609 150.582 15.2749V19.6821C150.579 19.9995 150.461 20.3052 150.251 20.5442C150.04 20.7832 149.751 20.94 149.435 20.9863C148.434 21.1494 147.414 21.1494 146.414 20.9863C146.095 20.9432 145.802 20.7879 145.589 20.5485C145.375 20.3092 145.255 20.0017 145.251 19.6821V15.2899C145.256 14.9759 145.375 14.6742 145.585 14.4401C145.796 14.206 146.085 14.0553 146.399 14.0156C146.896 13.9167 147.402 13.8715 147.909 13.8807L147.924 13.8657ZM163.148 23.9395C164.113 23.9475 165.075 23.847 166.017 23.6397C166.92 23.464 167.734 22.985 168.323 22.2834C168.911 21.5817 169.239 20.7001 169.249 19.7871V15.125C169.236 14.2166 168.909 13.3402 168.324 12.6419C167.739 11.9436 166.93 11.4655 166.032 11.2873C165.089 11.0874 164.127 10.9869 163.163 10.9875C162.183 10.9853 161.206 11.0858 160.248 11.2873C159.355 11.471 158.551 11.9512 157.969 12.6486C157.387 13.3461 157.062 14.2195 157.046 15.125V19.7871C157.062 20.6926 157.387 21.5659 157.969 22.2634C158.551 22.9609 159.355 23.441 160.248 23.6247C161.205 23.8336 162.183 23.9342 163.163 23.9245L163.148 23.9395ZM163.148 13.8657C163.655 13.8556 164.161 13.9009 164.658 14.0007C164.972 14.0403 165.261 14.1911 165.471 14.4251C165.682 14.6592 165.801 14.9609 165.806 15.2749V19.6821C165.802 19.9995 165.684 20.3052 165.474 20.5442C165.264 20.7832 164.974 20.94 164.658 20.9863C164.159 21.0656 163.654 21.1058 163.148 21.1063C162.642 21.1062 162.137 21.0661 161.637 20.9863C161.316 20.9466 161.019 20.7927 160.803 20.553C160.586 20.3133 160.464 20.004 160.459 19.6821V15.2899C160.465 14.9736 160.585 14.67 160.799 14.4356C161.013 14.2012 161.306 14.052 161.622 14.0156C162.119 13.9167 162.626 13.8715 163.133 13.8807L163.148 13.8657ZM172.828 7.02996L172.557 7.29983V23.2799L172.828 23.5347H175.713L176 23.2799V7.26982L175.713 7L172.828 7.02996Z" fill="black"/>
</svg>
