<svg width="28" height="24" viewBox="0 0 28 24" fill="none" xmlns="http://www.w3.org/2000/svg">
<path fill-rule="evenodd" clip-rule="evenodd" d="M7.34601 13.4493L8.33349 18.5206C8.69776 20.4012 7.57642 21.3733 5.93501 22.2401C4.29361 23.1047 2.44373 21.7354 2.07946 19.8548L1.09198 14.7813C0.170336 10.0524 6.45728 8.88936 7.34601 13.4493Z" fill="#8100E5" stroke="white" stroke-width="0.5" stroke-miterlimit="22.93"/>
<path fill-rule="evenodd" clip-rule="evenodd" d="M12.0572 8.16744H11.5613C5.87781 9.22733 10.2139 21.7486 4.6665 22.4925C7.85057 23.0213 10.7362 22.5298 12.0682 21.246C14.1046 19.2821 13.9686 15.8742 14.3394 12.2139C14.5325 10.2982 13.5648 8.75993 12.0572 8.15866V8.16744Z" fill="#7424EC" stroke="white" stroke-width="0.5" stroke-miterlimit="22.93"/>
<path fill-rule="evenodd" clip-rule="evenodd" d="M16.2792 22.6351C14.7431 23.1485 13.3804 21.5971 13.3716 19.2052C13.3607 16.3305 14.9406 9.40942 11.5415 8.17836C15.1184 8.0862 15.9171 8.4395 17.3918 9.87902C19.5532 12.7954 18.625 17.0986 18.6886 19.0955C18.7479 21.0288 17.7099 21.8912 16.2748 22.6307L16.2792 22.6351Z" fill="#6647F4" stroke="white" stroke-width="0.5" stroke-miterlimit="22.93"/>
<path fill-rule="evenodd" clip-rule="evenodd" d="M21.1924 4.02878L18.4143 17.0635C18.3543 17.3245 18.3183 17.5904 18.3068 17.8579C17.6924 21.8078 16.2836 22.2006 14.7036 22.4134C19.1824 23.9495 23.1411 22.2906 24.4402 19.5037C24.5708 19.2304 24.6701 18.9434 24.7364 18.6479L27.5145 5.61313C28.5744 0.647215 22.248 -0.945919 21.1903 4.03097L21.1924 4.02878Z" fill="#517FFF" stroke="white" stroke-width="0.5" stroke-miterlimit="22.93"/>
</svg>
