<svg xmlns="http://www.w3.org/2000/svg" xmlns:xlink="http://www.w3.org/1999/xlink"><symbol id="arrow-left" viewBox="0 0 16 16"><path d="M15 7a1 1 0 110 2V7zM1 8l-.707.707a1 1 0 010-1.414L1 8zM7.293.293a1 1 0 011.414 1.414L7.293.293zm1.414 14a1 1 0 11-1.414 1.414l1.414-1.414zM15 9H1V7h14v2zM8.707 1.707l-7 7L.293 7.293l7-7 1.414 1.414zm-7 5.586l7 7-1.414 1.414-7-7 1.414-1.414z"/></symbol><symbol id="arrow-right" viewBox="0 0 16 16"><path d="M1 7a1 1 0 000 2V7zm14 1l.707.707a1 1 0 000-1.414L15 8zM8.707.293a1 1 0 00-1.414 1.414L8.707.293zm-1.414 14a1 1 0 101.414 1.414l-1.414-1.414zM1 9h14V7H1v2zm6.293-7.293l7 7 1.414-1.414-7-7-1.414 1.414zm7 5.586l-7 7 1.414 1.414 7-7-1.414-1.414z"/></symbol><symbol id="check" viewBox="0 0 13 10"><path d="M10.352 0L4.244 6.204 1.867 3.793 0 5.689 4.244 10l7.978-8.104L10.352 0z"/></symbol><symbol id="fb" viewBox="0 0 10 18"><path d="M9.345 10.125l.518-3.258H6.621V4.753c0-.89.453-1.76 1.905-1.76H10V.22S8.662 0 7.383 0c-2.67 0-4.415 1.56-4.415 4.385v2.482H0v3.258h2.968V18h3.653v-7.875h2.724z"/></symbol><symbol id="inst" viewBox="0 0 21 21"><path d="M10.5 1.75c2.377 0 2.674.009 3.607.052.932.044 1.566.19 2.124.407a4.265 4.265 0 011.55 1.01c.446.437.79.966 1.01 1.55.216.557.363 1.192.407 2.124.04.933.052 1.23.052 3.607 0 2.377-.009 2.674-.052 3.607-.044.932-.191 1.566-.407 2.124a4.27 4.27 0 01-1.01 1.55 4.3 4.3 0 01-1.55 1.01c-.557.216-1.192.363-2.124.407-.933.04-1.23.052-3.607.052-2.377 0-2.674-.009-3.607-.052-.932-.044-1.566-.191-2.124-.407a4.278 4.278 0 01-1.55-1.01 4.29 4.29 0 01-1.01-1.55c-.217-.557-.363-1.192-.407-2.124-.04-.933-.052-1.23-.052-3.607 0-2.377.009-2.674.052-3.607.044-.933.19-1.566.407-2.124a4.27 4.27 0 011.01-1.55c.436-.446.966-.79 1.55-1.01.558-.217 1.191-.363 2.124-.407.933-.04 1.23-.052 3.607-.052zm0 4.375a4.375 4.375 0 100 8.75 4.375 4.375 0 000-8.75zm5.688-.219a1.093 1.093 0 10-2.187 0 1.093 1.093 0 002.187 0zM10.5 7.875a2.625 2.625 0 110 5.25 2.625 2.625 0 010-5.25z"/></symbol><symbol id="lion" viewBox="0 0 130 169"><path d="M130 139C130 83.772 85.228 39 30 39H0v130h130v-30z"/><circle cx="105" cy="25" r="20" stroke-width="10"/></symbol><symbol id="wa" viewBox="0 0 20 20"><path d="M9.525.008a10.128 10.128 0 00-4.817 1.618 9.758 9.758 0 00-3.38 3.82C.918 6.287.66 7.078.484 8.052c-.133.73-.16 1.83-.068 2.676.124 1.138.548 2.5 1.121 3.614l.165.314-.381 1.116c-.211.614-.592 1.734-.85 2.488-.26.758-.47 1.396-.47 1.427 0 .027.04.067.09.085.08.03.09.043.074.137-.018.097-.015.103.056.082.127-.04 2.9-.906 4.07-1.278a25.24 25.24 0 011.171-.35c.028 0 .161.052.294.12 1.134.559 2.342.893 3.627 1.01.508.042 1.543.02 2.042-.05 2.955-.401 5.47-2.004 7.019-4.465.505-.803.985-1.923 1.242-2.896.245-.934.362-2.093.297-2.987-.167-2.376-1.102-4.48-2.729-6.136C15.677 1.355 13.67.364 11.383.063A17.006 17.006 0 009.525.008zm1.211 2.08c1.106.089 2.013.329 2.97.788a8.039 8.039 0 013.191 2.756c.62.916 1 1.901 1.15 2.978.07.511.07 1.546 0 2.069-.506 3.677-3.597 6.512-7.348 6.744a8.072 8.072 0 01-3.754-.651c-.332-.143-.88-.435-1.05-.557a.355.355 0 00-.152-.073c-.028 0-.688.198-1.462.441a50.94 50.94 0 01-1.416.435c-.006-.006.192-.6.437-1.317.245-.721.446-1.345.446-1.393 0-.049-.056-.162-.136-.274-1.295-1.822-1.716-4.338-1.087-6.47.139-.463.254-.745.48-1.186A8.034 8.034 0 015.73 3.39c1.466-.96 3.296-1.435 5.006-1.302z"/><path d="M7.195 5.792c-.06.018-.146.06-.195.088-.133.082-.518.488-.638.673-.383.59-.469 1.374-.24 2.14.175.58.388 1.021.779 1.618.495.751.815 1.158 1.328 1.68.771.784 1.42 1.224 2.414 1.633.735.303 1.276.476 1.581.507.21.02.672-.052.943-.15.375-.133.804-.432.971-.673.167-.247.339-.805.36-1.176l.015-.244-.08-.093c-.058-.062-.292-.2-.766-.452-1.125-.597-1.269-.654-1.446-.561-.044.02-.21.188-.367.368-.463.532-.56.625-.638.625-.099 0-.747-.327-1.05-.528a5.002 5.002 0 01-.87-.722 6.065 6.065 0 01-.924-1.25l-.046-.093.187-.203c.247-.26.349-.417.448-.69.101-.277.096-.362-.052-.745-.133-.342-.24-.625-.425-1.117-.15-.403-.263-.568-.419-.617-.148-.044-.747-.056-.87-.018z"/></symbol><symbol id="yt" viewBox="0 0 24 24"><path d="M21.966 6.544a2.202 2.202 0 00-1.36-1.528C17.4 3.778 12.281 3.788 12 3.788c-.281 0-5.4-.01-8.606 1.228a2.203 2.203 0 00-1.36 1.528C1.791 7.472 1.5 9.178 1.5 12c0 2.822.29 4.528.534 5.456a2.202 2.202 0 001.36 1.529c3.075 1.19 7.893 1.228 8.54 1.228h.132c.646 0 5.465-.038 8.54-1.229a2.203 2.203 0 001.36-1.528c.243-.928.534-2.634.534-5.456 0-2.822-.29-4.528-.534-5.456zm-6.76 5.766l-4.5 3a.337.337 0 01-.206.065.42.42 0 01-.178-.047.365.365 0 01-.197-.328V9a.365.365 0 01.197-.328.375.375 0 01.384.019l4.5 3a.367.367 0 010 .618z"/></symbol></svg>